<svg version="1.1" viewBox="0.00 0.00 1024.00 1024.00" id="svg29" sodipodi:docname="Designer.svg" inkscape:version="1.4.2 (f4327f4, 2025-05-13)" inkscape:export-filename="Designer.png" inkscape:export-xdpi="384" inkscape:export-ydpi="384" xmlns:inkscape="http://www.inkscape.org/namespaces/inkscape" xmlns:sodipodi="http://sodipodi.sourceforge.net/DTD/sodipodi-0.dtd" xmlns="http://www.w3.org/2000/svg" xmlns:svg="http://www.w3.org/2000/svg">
  <defs id="defs29"></defs>
  <sodipodi:namedview id="namedview29" pagecolor="#ffffff" bordercolor="#000000" borderopacity="0.25" inkscape:showpageshadow="2" inkscape:pageopacity="0.0" inkscape:pagecheckerboard="true" inkscape:deskcolor="#d1d1d1" inkscape:zoom="1.1533203" inkscape:cx="512" inkscape:cy="512" inkscape:window-width="2400" inkscape:window-height="1494" inkscape:window-x="-11" inkscape:window-y="-11" inkscape:window-maximized="1" inkscape:current-layer="svg29" labelstyle="default"></sodipodi:namedview>
  <g stroke-width="2.00" fill="none" stroke-linecap="butt" id="g15">
    <path stroke="#0f1214" vector-effect="non-scaling-stroke" d="M 582.37 908.26   C 584.64 912.26 586.62 915.23 590.22 918.38   Q 597.58 924.83 606.19 927.52   C 609.19 928.45 610.88 929.89 611.59 932.70   Q 612.92 937.88 613.24 944.50   C 613.50 949.79 614.55 954.55 617.38 959.07   A 3.92 3.85 88.0 0 0 618.77 960.39   C 627.84 965.47 639.14 965.98 648.90 963.86   C 653.88 962.77 657.95 960.37 660.46 955.90   Q 662.00 953.14 662.03 946.83   Q 662.08 935.05 661.88 923.30   C 661.84 921.09 662.11 920.00 663.96 918.94   C 677.83 910.94 690.97 902.25 702.28 891.37   Q 707.15 886.69 711.92 880.41   Q 717.24 873.42 719.94 868.23   Q 724.13 860.19 726.24 849.90   Q 726.96 846.37 727.11 844.07   C 727.35 840.40 728.23 836.73 728.05 832.76   C 727.84 828.04 728.01 826.29 727.36 821.25   Q 726.95 818.09 727.08 815.21   A 7.13 7.06 64.8 0 1 728.49 811.24   Q 738.93 797.25 743.76 781.34   Q 746.46 772.48 749.72 751.02   C 750.10 748.53 749.83 745.62 750.12 743.00   C 751.26 732.60 751.00 719.96 751.05 709.65   Q 751.08 704.16 750.75 697.35   Q 749.34 668.13 746.38 640.36   A 4.54 3.98 -59.7 0 0 746.24 639.64   Q 745.94 638.62 745.95 638.24   Q 746.03 634.18 745.07 629.73   A 6.99 6.36 -54.4 0 1 744.91 628.36   Q 744.81 622.01 743.97 616.56   C 743.11 610.91 743.07 607.34 742.13 602.49   C 740.60 594.55 739.96 585.98 738.42 577.69   C 737.41 572.26 737.03 567.10 736.16 561.83   Q 730.77 529.10 727.46 512.77   C 726.41 507.61 725.43 501.61 723.88 494.12   C 720.78 479.18 717.50 461.50 714.88 449.63   Q 710.72 430.87 709.04 414.73   Q 708.79 412.28 708.17 398.70   C 708.02 395.22 708.72 392.46 708.83 388.98   Q 708.92 386.40 709.59 381.62   Q 713.71 352.41 731.89 327.64   Q 736.69 321.11 737.61 320.10   Q 743.92 313.20 748.81 308.61   Q 751.88 305.73 761.08 298.35   Q 785.05 279.12 798.15 254.96   Q 805.23 241.90 806.77 225.15   Q 808.08 210.95 803.63 197.15   Q 799.26 183.60 790.68 172.08   Q 784.25 163.46 780.59 159.66   Q 765.43 143.98 745.64 132.13   Q 728.46 121.84 710.43 114.33   Q 680.38 101.81 645.65 93.10   C 640.70 91.85 634.04 90.78 629.51 89.56   Q 624.07 88.10 617.39 87.03   Q 616.05 86.81 602.52 84.20   C 594.93 82.74 586.20 81.78 578.33 80.55   Q 572.65 79.66 569.38 79.41   Q 562.43 78.89 560.41 78.45   C 557.62 77.84 555.11 78.09 551.73 77.62   Q 549.09 77.25 545.23 77.18   C 540.02 77.08 534.90 76.15 530.00 75.87   Q 483.24 73.18 453.00 74.14   Q 416.51 75.30 405.75 76.35   Q 399.32 76.98 384.93 78.11   Q 382.44 78.31 378.74 78.83   Q 377.05 79.07 372.52 79.36   Q 367.49 79.69 354.19 81.70   Q 350.47 82.26 329.81 85.58   Q 317.43 87.56 307.57 89.60   Q 297.74 91.62 279.25 95.79   Q 260.52 100.01 232.66 110.02   Q 225.65 112.54 220.33 115.13   Q 212.18 119.10 208.44 121.18   C 194.22 129.08 181.82 140.36 174.41 155.11   C 172.70 158.50 171.66 161.69 170.16 165.73   C 168.16 171.09 167.57 176.62 166.61 182.01   C 166.03 185.26 166.30 188.50 165.78 191.10   Q 165.27 193.60 165.25 197.92   Q 165.23 202.85 165.27 210.74   Q 165.33 220.33 168.54 244.48   C 168.94 247.49 170.29 251.39 171.09 254.91   Q 174.78 271.15 183.02 286.06   Q 190.62 299.83 201.68 310.23   Q 213.95 321.74 226.29 328.30   Q 243.49 337.44 257.95 342.54   C 268.54 346.27 280.83 350.28 291.79 352.99   Q 308.63 357.16 318.00 359.24   Q 323.62 360.49 331.24 361.54   C 333.15 361.80 335.28 362.62 337.38 362.95   Q 347.82 364.59 363.87 366.87   Q 369.69 367.69 384.02 368.51   Q 394.70 369.13 398.88 370.66   Q 407.20 373.71 412.96 379.98   Q 421.73 389.52 426.01 401.81   Q 429.80 412.68 431.05 426.99   Q 432.39 442.32 429.67 457.22   Q 429.02 460.78 426.61 472.50   Q 424.89 480.89 426.66 490.65   Q 429.85 508.35 446.29 516.21   Q 451.71 518.81 461.20 521.15   Q 463.23 521.65 471.82 524.55   A 5.38 5.30 -16.4 0 1 473.41 525.40   Q 478.38 529.23 480.91 533.63   Q 485.13 540.94 486.56 546.97   Q 488.34 554.40 492.83 570.81   C 495.62 581.01 497.68 590.74 500.23 599.57   Q 501.32 603.34 504.92 618.03   Q 506.91 626.13 509.87 636.45   C 510.69 639.30 511.22 642.19 511.91 644.87   C 516.02 660.90 520.41 678.35 524.20 692.67   C 529.13 711.28 532.23 723.62 534.28 735.51   C 536.09 746.07 533.11 758.70 527.17 767.96   C 522.00 776.00 515.28 782.39 507.82 789.46   C 506.21 790.98 504.51 792.16 503.30 793.30   C 496.48 799.68 489.39 805.72 483.27 812.43   Q 476.39 819.96 475.32 821.32   Q 469.85 828.28 464.90 837.16   Q 459.47 846.92 458.48 858.04   C 457.45 869.56 461.48 882.37 469.99 890.75   Q 476.31 896.97 480.70 899.48   Q 501.03 911.09 527.75 914.50   Q 535.60 915.50 544.00 914.65   Q 549.31 914.11 552.50 913.88   Q 561.92 913.23 572.29 910.27   Q 578.51 908.50 581.50 907.86   A 0.81 0.81 0.0 0 1 582.37 908.26" id="path1"></path>
    <path stroke="#393f44" vector-effect="non-scaling-stroke" d="M 340.56 99.38   Q 340.00 99.40 339.68 99.57   Q 339.12 99.87 339.53 100.27   Q 339.81 100.54 340.55 100.69" id="path2"></path>
    <path stroke="#0f1214" vector-effect="non-scaling-stroke" d="M 340.55 100.69   Q 340.05 100.59 339.79 100.76   A 0.30 0.30 0.0 0 0 339.90 101.30   C 344.66 102.26 349.50 102.36 354.31 103.14   Q 355.30 103.30 366.85 105.02   Q 394.44 109.12 421.08 121.51   Q 443.03 131.72 460.27 148.35   C 480.78 168.13 493.09 195.85 498.73 224.17   Q 499.36 227.34 502.46 227.26   Q 523.45 226.68 542.76 225.51   A 0.31 0.31 0.0 0 0 543.05 225.19   L 543.03 224.92   A 0.09 0.09 0.0 0 0 542.94 224.83   L 538.21 224.63" id="path3"></path>
    <path stroke="#393f44" vector-effect="non-scaling-stroke" d="M 538.21 224.63   Q 587.43 222.07 636.48 217.09   Q 645.74 216.15 655.05 215.51" id="path4"></path>
    <path stroke="#0f1214" vector-effect="non-scaling-stroke" d="M 655.05 215.51   Q 653.28 216.17 651.30 215.98   A 0.28 0.28 0.0 0 0 650.99 216.22   L 650.96 216.39   A 0.34 0.34 0.0 0 0 651.31 216.78   Q 658.29 216.42 664.97 215.65   Q 683.35 213.54 711.79 209.91   Q 725.10 208.21 738.46 205.92   Q 754.14 203.23 761.55 200.54   C 766.75 198.66 770.43 196.74 774.82 193.79   Q 778.53 191.29 775.97 187.08   Q 768.10 174.11 758.99 165.77   Q 746.15 154.03 729.99 144.79   Q 712.51 134.79 695.25 128.01   Q 673.79 119.58 650.25 113.33   Q 628.02 107.43 618.00 105.50   Q 591.92 100.49 564.93 96.85   C 561.22 96.35 558.41 96.46 555.05 95.81   Q 553.77 95.56 547.63 95.08   Q 533.89 94.03 528.93 93.55   Q 526.67 93.34 523.10 93.24   C 518.46 93.12 514.22 92.24 509.77 92.31   Q 506.16 92.36 502.25 92.13   Q 466.76 90.09 427.50 91.59   Q 417.51 91.97 407.49 92.30   C 402.45 92.46 397.56 93.23 393.33 93.14   Q 388.82 93.04 382.72 93.82   Q 378.54 94.35 369.24 94.95   C 360.31 95.52 350.60 97.21 341.32 98.50   Q 339.30 98.78 340.56 99.38" id="path5"></path>
    <path stroke="#2b2f31" vector-effect="non-scaling-stroke" d="M 655.05 215.51   C 684.97 212.33 715.71 208.94 744.68 203.64   C 755.18 201.72 766.72 198.99 775.16 192.22   A 2.59 2.59 0.0 0 0 775.79 188.92   Q 765.16 170.20 747.59 157.39   C 727.31 142.60 704.26 131.69 680.68 123.58   C 614.32 100.75 544.89 93.42 472.99 92.33   Q 417.85 91.49 363.30 96.82   Q 351.90 97.94 340.56 99.38" id="path6"></path>
    <path stroke="#2b2f31" vector-effect="non-scaling-stroke" d="M 538.21 224.63   L 501.03 226.13   A 0.96 0.95 -6.5 0 1 500.04 225.35   C 494.97 197.18 481.94 168.10 461.21 148.03   C 428.38 116.27 385.24 104.23 340.55 100.69" id="path7"></path>
    <path stroke="#0f1214" vector-effect="non-scaling-stroke" d="M 195.88 271.70   Q 203.15 287.84 215.98 299.18   C 226.08 308.09 236.08 313.66 248.65 319.31   Q 257.79 323.41 274.77 328.91   Q 293.39 334.93 323.09 340.31   A 5.99 5.89 -28.8 0 1 324.16 340.61   C 328.74 342.32 334.41 342.04 339.27 342.73   C 349.59 344.20 364.75 345.06 370.43 345.43   C 380.53 346.10 389.31 344.45 399.82 342.82   Q 406.72 341.74 413.65 338.39   C 423.12 333.81 431.97 327.46 438.21 319.42   C 448.01 306.80 453.83 291.12 455.99 275.50   Q 460.16 245.24 452.01 215.81   C 450.84 211.61 449.00 207.53 447.77 203.68   Q 446.50 199.68 444.03 194.79   C 439.84 186.48 435.26 179.82 429.58 172.85   Q 426.28 168.80 423.39 166.20   Q 416.16 159.71 410.79 156.02   Q 393.99 144.47 373.34 137.48   Q 358.03 132.30 344.92 129.91   Q 326.38 126.53 303.66 124.74   Q 299.27 124.39 293.34 124.39   Q 283.02 124.38 282.99 124.38   Q 278.79 124.04 267.52 125.03   Q 255.70 126.06 245.17 128.05   Q 236.41 129.70 230.57 131.70   Q 223.47 134.13 216.68 137.43   Q 196.97 147.02 188.95 167.68   C 183.93 180.62 182.93 194.91 183.11 209.06   Q 183.17 213.58 184.00 221.91   Q 184.90 230.89 185.31 234.74   Q 186.40 245.05 188.57 252.43   Q 190.94 260.44 194.11 268.41   Q 194.72 269.93 195.50 271.04   A 4.17 3.90 -76.8 0 1 195.88 271.70" id="path8"></path>
    <path stroke="#293036" vector-effect="non-scaling-stroke" d="M 456.73 349.29   Q 478.13 350.21 501.50 349.60   Q 526.61 348.94 554.18 346.40   Q 575.49 344.44 595.00 341.25   Q 636.18 334.50 674.95 320.37   C 682.88 317.48 690.22 314.03 697.58 310.77   Q 715.78 302.70 736.73 288.97   C 750.63 279.85 764.84 268.28 774.06 253.86   Q 783.73 238.73 785.03 220.84   A 0.53 0.52 -8.4 0 0 784.32 220.32   C 775.89 223.61 767.55 226.48 758.28 228.52   Q 727.15 235.36 694.85 239.40   Q 678.75 241.41 678.74 241.41   Q 644.84 245.56 640.00 246.04   Q 582.09 251.77 522.14 254.75   C 514.95 255.10 508.40 255.04 501.56 255.03   A 0.77 0.77 0.0 0 0 500.79 255.78   C 500.74 257.56 501.06 259.34 500.89 261.32   Q 499.64 275.30 496.16 290.08   C 491.96 307.97 482.94 325.71 469.94 338.83   C 465.86 342.96 462.11 344.91 456.52 348.54   A 0.41 0.41 0.0 0 0 456.73 349.29" id="path9"></path>
    <path stroke="#293036" vector-effect="non-scaling-stroke" d="M 702.73 334.93   A 0.40 0.40 0.0 0 0 702.18 334.40   Q 670.75 350.46 636.05 359.79   Q 616.40 365.08 600.98 367.91   Q 565.25 374.46 528.00 375.99   Q 523.22 376.18 518.42 375.94   A 0.43 0.42 -10.4 0 0 518.01 376.53   C 524.87 392.70 528.23 410.18 529.72 428.25   Q 531.34 447.87 527.74 466.47   Q 527.62 467.13 523.94 483.10   Q 521.09 495.44 527.69 505.14   Q 530.50 509.28 535.71 512.96   Q 538.95 515.24 544.73 519.76   C 556.96 529.31 564.97 543.33 569.72 558.02   Q 573.70 570.33 575.24 576.50   Q 588.18 628.22 607.42 703.60   C 611.10 718.01 613.84 731.39 614.73 744.99   Q 616.42 770.66 602.06 793.79   Q 594.40 806.12 584.78 815.80   Q 565.31 835.39 556.88 844.35   Q 550.70 850.92 543.95 863.02   C 541.37 867.64 539.73 873.42 539.23 878.56   A 1.84 1.83 -80.8 0 0 540.64 880.52   C 546.40 881.84 550.72 881.98 557.17 881.35   Q 569.12 880.18 587.80 873.05   Q 599.78 868.47 619.07 858.84   Q 646.60 845.10 664.23 834.71   Q 679.83 825.52 691.36 816.61   C 706.72 804.76 720.07 788.42 725.28 769.35   Q 727.55 761.02 728.33 756.70   Q 729.62 749.64 730.16 738.78   Q 730.96 722.62 729.66 696.25   Q 728.48 672.25 725.19 639.00   Q 723.33 620.16 720.69 603.06   Q 718.79 590.81 716.95 577.04   C 714.34 557.54 711.67 543.92 708.01 522.34   Q 706.08 510.94 702.59 493.72   Q 699.09 476.40 693.82 451.47   C 690.58 436.16 688.15 421.43 687.30 407.75   Q 686.37 392.86 689.46 374.19   Q 692.04 358.66 697.96 345.45   Q 701.08 338.49 702.73 334.93" id="path10"></path>
    <path stroke="#876f35" vector-effect="non-scaling-stroke" d="M 502.54 509.23   Q 497.77 496.75 500.18 482.43   C 501.73 473.25 504.43 462.81 505.13 454.08   C 507.09 429.70 500.77 404.15 490.53 382.02   C 489.44 379.68 489.02 378.09 486.54 378.11   C 471.78 378.23 459.11 376.71 440.98 375.05   Q 439.18 374.88 437.42 374.47   A 0.38 0.37 -7.3 0 0 437.00 375.01   C 448.39 396.43 451.31 421.98 449.85 446.58   C 449.35 454.93 448.17 459.74 446.33 469.79   C 444.06 482.18 443.61 494.10 456.68 499.63   Q 464.25 502.84 472.20 504.33   Q 484.94 506.72 502.04 509.82   A 0.44 0.44 0.0 0 0 502.54 509.23" id="path11"></path>
    <path stroke="#293036" vector-effect="non-scaling-stroke" d="M 522.00 875.94   C 522.84 861.15 530.07 848.15 539.55 837.05   Q 548.21 826.91 560.20 814.21   Q 572.61 801.07 576.27 796.27   Q 582.05 788.70 583.87 785.61   Q 594.03 768.45 593.04 748.49   Q 592.27 732.97 589.66 722.55   Q 577.54 674.04 573.53 657.31   C 566.58 628.24 559.57 602.00 552.05 570.97   Q 549.78 561.63 546.73 555.19   Q 541.04 543.21 527.98 538.00   Q 517.07 533.65 505.00 531.80   A 0.59 0.59 0.0 0 0 504.34 532.53   Q 505.43 536.70 506.10 539.55   Q 512.75 567.68 517.26 585.30   Q 525.71 618.24 539.37 669.07   Q 544.70 688.91 550.08 710.97   C 552.75 721.95 554.70 734.35 553.95 745.83   Q 553.45 753.62 553.22 754.97   Q 549.77 774.87 536.11 789.88   Q 530.86 795.66 523.28 802.28   Q 504.87 818.36 501.91 821.17   C 491.27 831.28 478.64 845.57 478.25 861.28   A 2.05 2.05 0.0 0 0 479.50 863.21   Q 499.00 871.43 521.49 876.32   A 0.42 0.42 0.0 0 0 522.00 875.94" id="path12"></path>
    <path stroke="#293036" vector-effect="non-scaling-stroke" d="M 706.01 838.47   A 0.64 0.64 0.0 0 0 704.94 838.01   Q 700.33 842.16 695.49 845.96   Q 689.00 851.06 665.58 866.06   Q 650.38 875.80 613.73 894.21   Q 610.52 895.82 606.34 897.22   A 1.13 1.13 0.0 0 0 605.81 898.99   C 614.40 909.97 629.60 911.94 641.91 906.41   Q 655.24 900.42 675.15 887.91   Q 682.10 883.55 689.27 877.23   Q 706.58 861.96 706.01 838.47" id="path13"></path>
    <path stroke="#0f1214" vector-effect="non-scaling-stroke" d="M 363.15 175.66   C 360.98 175.35 358.98 174.24 356.98 173.66   C 345.30 170.27 333.34 167.04 321.01 165.24   C 319.26 164.98 317.46 164.37 315.83 164.13   Q 305.34 162.56 297.47 161.61   C 290.81 160.80 284.46 160.93 278.53 160.25   C 273.33 159.66 264.70 159.54 258.17 160.06   C 249.31 160.76 244.72 160.92 238.05 162.27   Q 234.68 162.96 231.43 163.80   Q 215.67 167.88 210.51 184.27   Q 208.37 191.09 208.12 194.58   Q 207.03 210.31 208.12 225.03   C 208.57 231.11 210.22 238.95 211.43 243.56   C 214.90 256.83 221.62 270.08 233.14 277.83   C 244.33 285.35 256.73 289.21 269.66 293.22   Q 275.91 295.15 279.05 295.86   Q 287.45 297.74 288.54 298.07   C 293.49 299.53 299.19 300.18 304.28 301.46   Q 310.60 303.06 316.11 303.80   Q 319.58 304.27 333.13 306.36   Q 351.42 309.17 372.54 310.61   C 385.64 311.51 399.83 310.72 408.27 299.05   Q 413.81 291.39 416.11 283.17   Q 420.94 265.88 420.07 248.54   Q 419.50 237.29 416.56 226.92   Q 412.93 214.13 404.65 202.66   Q 403.52 201.10 402.49 200.18   C 400.41 198.32 398.85 195.82 396.86 194.14   Q 389.74 188.15 383.75 184.79   Q 375.81 180.33 363.85 175.84   A 3.20 3.18 59.2 0 0 363.15 175.66" id="path14"></path>
    <path stroke="#293036" vector-effect="non-scaling-stroke" d="M 283.37 191.78   A 0.57 0.57 0.0 0 0 282.77 192.36   C 282.95 206.42 282.09 221.17 288.14 234.39   Q 289.88 238.20 292.49 240.28   C 299.81 246.12 309.85 248.40 319.23 250.46   Q 347.70 256.70 378.16 261.06   C 385.39 262.09 392.70 263.24 399.27 263.35   Q 401.12 263.38 402.45 263.13   A 1.09 1.08 -3.8 0 0 403.33 262.13   Q 403.91 252.73 403.32 241.35   Q 403.08 236.75 402.33 233.14   Q 400.89 226.33 400.38 225.07   Q 397.28 217.46 389.66 213.80   C 387.27 212.65 384.31 211.02 381.68 210.10   Q 366.54 204.77 350.18 201.15   Q 328.75 196.40 310.51 194.31   C 296.95 192.75 291.44 192.11 283.37 191.78" id="path15"></path>
  </g>
  <path fill="#010101" d="M 580.42 909.27   Q 580.23 909.29 579.93 909.53   A 1.56 1.49 15.4 0 1 579.41 909.81   Q 564.68 914.50 549.16 916.04   Q 533.23 917.62 518.51 914.82   Q 497.06 910.74 478.63 899.94   Q 474.29 897.39 468.75 891.79   Q 458.33 881.25 457.09 866.99   Q 455.84 852.52 461.63 840.31   C 469.11 824.54 482.01 810.61 494.73 799.22   Q 509.33 786.15 514.30 781.32   C 528.21 767.82 535.93 751.78 531.93 731.90   Q 529.91 721.87 528.17 714.92   Q 524.18 699.06 484.61 546.27   Q 482.30 537.32 477.04 530.61   C 475.18 528.25 472.28 526.21 468.96 525.12   C 462.85 523.13 456.49 521.66 450.77 519.72   Q 446.48 518.26 440.64 514.66   C 427.07 506.31 421.78 488.32 424.97 473.18   Q 428.20 457.81 428.94 451.76   Q 431.84 428.00 425.53 405.45   C 421.34 390.49 410.84 374.19 394.41 371.20   Q 390.72 370.53 383.65 370.15   Q 379.05 369.90 372.89 369.25   C 340.22 365.80 308.35 359.82 277.37 350.66   Q 252.50 343.30 230.63 332.39   Q 216.75 325.46 203.92 314.34   C 185.44 298.34 173.84 276.04 168.61 252.11   Q 161.95 221.70 164.11 190.25   Q 164.95 177.93 168.23 166.71   C 177.33 135.63 203.77 119.32 232.51 108.52   Q 256.10 99.65 280.05 94.08   Q 333.40 81.67 385.28 76.57   Q 399.28 75.19 423.74 73.57   Q 426.27 73.40 427.50 73.35   Q 468.83 71.85 483.94 72.42   Q 496.63 72.90 507.31 73.01   C 512.80 73.07 518.19 73.94 523.32 73.93   Q 526.61 73.93 530.66 74.40   Q 531.56 74.50 538.00 74.97   Q 583.20 78.24 627.07 87.40   Q 666.06 95.54 702.19 109.33   Q 714.97 114.21 730.14 121.87   Q 752.03 132.93 770.01 147.73   Q 781.97 157.57 791.15 170.11   C 799.83 181.94 806.13 195.07 807.89 208.97   C 811.28 235.86 800.82 258.78 783.10 279.12   Q 772.35 291.45 760.28 300.77   Q 752.53 306.74 748.60 310.69   Q 740.47 318.85 738.06 321.81   Q 719.41 344.63 712.95 371.45   Q 711.39 377.92 710.12 390.25   Q 709.79 393.47 709.94 403.62   Q 710.04 410.43 710.70 415.85   C 711.35 421.24 711.99 427.28 712.97 432.04   C 718.09 456.84 726.56 498.06 733.00 533.96   Q 745.25 602.23 750.79 671.00   Q 751.87 684.39 752.43 706.26   C 752.90 724.63 752.69 740.52 750.55 756.32   Q 749.21 766.23 746.60 776.58   Q 741.60 796.46 729.17 813.16   A 3.41 3.41 0.0 0 0 728.52 815.62   Q 730.29 830.12 728.54 844.79   C 724.81 876.00 700.87 898.17 675.34 913.81   Q 666.50 919.22 663.85 920.91   A 0.96 0.95 73.7 0 0 663.42 921.71   Q 663.49 929.06 663.94 938.24   C 664.36 946.86 664.52 956.30 657.35 961.91   C 650.87 966.97 639.23 966.97 630.48 966.01   C 621.58 965.04 614.20 961.15 612.39 951.63   Q 611.32 945.97 610.85 938.86   C 610.71 936.82 610.09 934.83 609.91 932.65   A 3.08 3.07 8.9 0 0 608.03 930.08   Q 601.33 927.29 597.31 925.19   Q 587.01 919.81 581.60 909.87   Q 581.22 909.18 580.42 909.27   Z   M 582.37 908.26   C 584.64 912.26 586.62 915.23 590.22 918.38   Q 597.58 924.83 606.19 927.52   C 609.19 928.45 610.88 929.89 611.59 932.70   Q 612.92 937.88 613.24 944.50   C 613.50 949.79 614.55 954.55 617.38 959.07   A 3.92 3.85 88.0 0 0 618.77 960.39   C 627.84 965.47 639.14 965.98 648.90 963.86   C 653.88 962.77 657.95 960.37 660.46 955.90   Q 662.00 953.14 662.03 946.83   Q 662.08 935.05 661.88 923.30   C 661.84 921.09 662.11 920.00 663.96 918.94   C 677.83 910.94 690.97 902.25 702.28 891.37   Q 707.15 886.69 711.92 880.41   Q 717.24 873.42 719.94 868.23   Q 724.13 860.19 726.24 849.90   Q 726.96 846.37 727.11 844.07   C 727.35 840.40 728.23 836.73 728.05 832.76   C 727.84 828.04 728.01 826.29 727.36 821.25   Q 726.95 818.09 727.08 815.21   A 7.13 7.06 64.8 0 1 728.49 811.24   Q 738.93 797.25 743.76 781.34   Q 746.46 772.48 749.72 751.02   C 750.10 748.53 749.83 745.62 750.12 743.00   C 751.26 732.60 751.00 719.96 751.05 709.65   Q 751.08 704.16 750.75 697.35   Q 749.34 668.13 746.38 640.36   A 4.54 3.98 -59.7 0 0 746.24 639.64   Q 745.94 638.62 745.95 638.24   Q 746.03 634.18 745.07 629.73   A 6.99 6.36 -54.4 0 1 744.91 628.36   Q 744.81 622.01 743.97 616.56   C 743.11 610.91 743.07 607.34 742.13 602.49   C 740.60 594.55 739.96 585.98 738.42 577.69   C 737.41 572.26 737.03 567.10 736.16 561.83   Q 730.77 529.10 727.46 512.77   C 726.41 507.61 725.43 501.61 723.88 494.12   C 720.78 479.18 717.50 461.50 714.88 449.63   Q 710.72 430.87 709.04 414.73   Q 708.79 412.28 708.17 398.70   C 708.02 395.22 708.72 392.46 708.83 388.98   Q 708.92 386.40 709.59 381.62   Q 713.71 352.41 731.89 327.64   Q 736.69 321.11 737.61 320.10   Q 743.92 313.20 748.81 308.61   Q 751.88 305.73 761.08 298.35   Q 785.05 279.12 798.15 254.96   Q 805.23 241.90 806.77 225.15   Q 808.08 210.95 803.63 197.15   Q 799.26 183.60 790.68 172.08   Q 784.25 163.46 780.59 159.66   Q 765.43 143.98 745.64 132.13   Q 728.46 121.84 710.43 114.33   Q 680.38 101.81 645.65 93.10   C 640.70 91.85 634.04 90.78 629.51 89.56   Q 624.07 88.10 617.39 87.03   Q 616.05 86.81 602.52 84.20   C 594.93 82.74 586.20 81.78 578.33 80.55   Q 572.65 79.66 569.38 79.41   Q 562.43 78.89 560.41 78.45   C 557.62 77.84 555.11 78.09 551.73 77.62   Q 549.09 77.25 545.23 77.18   C 540.02 77.08 534.90 76.15 530.00 75.87   Q 483.24 73.18 453.00 74.14   Q 416.51 75.30 405.75 76.35   Q 399.32 76.98 384.93 78.11   Q 382.44 78.31 378.74 78.83   Q 377.05 79.07 372.52 79.36   Q 367.49 79.69 354.19 81.70   Q 350.47 82.26 329.81 85.58   Q 317.43 87.56 307.57 89.60   Q 297.74 91.62 279.25 95.79   Q 260.52 100.01 232.66 110.02   Q 225.65 112.54 220.33 115.13   Q 212.18 119.10 208.44 121.18   C 194.22 129.08 181.82 140.36 174.41 155.11   C 172.70 158.50 171.66 161.69 170.16 165.73   C 168.16 171.09 167.57 176.62 166.61 182.01   C 166.03 185.26 166.30 188.50 165.78 191.10   Q 165.27 193.60 165.25 197.92   Q 165.23 202.85 165.27 210.74   Q 165.33 220.33 168.54 244.48   C 168.94 247.49 170.29 251.39 171.09 254.91   Q 174.78 271.15 183.02 286.06   Q 190.62 299.83 201.68 310.23   Q 213.95 321.74 226.29 328.30   Q 243.49 337.44 257.95 342.54   C 268.54 346.27 280.83 350.28 291.79 352.99   Q 308.63 357.16 318.00 359.24   Q 323.62 360.49 331.24 361.54   C 333.15 361.80 335.28 362.62 337.38 362.95   Q 347.82 364.59 363.87 366.87   Q 369.69 367.69 384.02 368.51   Q 394.70 369.13 398.88 370.66   Q 407.20 373.71 412.96 379.98   Q 421.73 389.52 426.01 401.81   Q 429.80 412.68 431.05 426.99   Q 432.39 442.32 429.67 457.22   Q 429.02 460.78 426.61 472.50   Q 424.89 480.89 426.66 490.65   Q 429.85 508.35 446.29 516.21   Q 451.71 518.81 461.20 521.15   Q 463.23 521.65 471.82 524.55   A 5.38 5.30 -16.4 0 1 473.41 525.40   Q 478.38 529.23 480.91 533.63   Q 485.13 540.94 486.56 546.97   Q 488.34 554.40 492.83 570.81   C 495.62 581.01 497.68 590.74 500.23 599.57   Q 501.32 603.34 504.92 618.03   Q 506.91 626.13 509.87 636.45   C 510.69 639.30 511.22 642.19 511.91 644.87   C 516.02 660.90 520.41 678.35 524.20 692.67   C 529.13 711.28 532.23 723.62 534.28 735.51   C 536.09 746.07 533.11 758.70 527.17 767.96   C 522.00 776.00 515.28 782.39 507.82 789.46   C 506.21 790.98 504.51 792.16 503.30 793.30   C 496.48 799.68 489.39 805.72 483.27 812.43   Q 476.39 819.96 475.32 821.32   Q 469.85 828.28 464.90 837.16   Q 459.47 846.92 458.48 858.04   C 457.45 869.56 461.48 882.37 469.99 890.75   Q 476.31 896.97 480.70 899.48   Q 501.03 911.09 527.75 914.50   Q 535.60 915.50 544.00 914.65   Q 549.31 914.11 552.50 913.88   Q 561.92 913.23 572.29 910.27   Q 578.51 908.50 581.50 907.86   A 0.81 0.81 0.0 0 1 582.37 908.26   Z" id="path16"></path>
  <path fill="#1c2227" d="M 582.37 908.26   A 0.81 0.81 0.0 0 0 581.50 907.86   Q 578.51 908.50 572.29 910.27   Q 561.92 913.23 552.50 913.88   Q 549.31 914.11 544.00 914.65   Q 535.60 915.50 527.75 914.50   Q 501.03 911.09 480.70 899.48   Q 476.31 896.97 469.99 890.75   C 461.48 882.37 457.45 869.56 458.48 858.04   Q 459.47 846.92 464.90 837.16   Q 469.85 828.28 475.32 821.32   Q 476.39 819.96 483.27 812.43   C 489.39 805.72 496.48 799.68 503.30 793.30   C 504.51 792.16 506.21 790.98 507.82 789.46   C 515.28 782.39 522.00 776.00 527.17 767.96   C 533.11 758.70 536.09 746.07 534.28 735.51   C 532.23 723.62 529.13 711.28 524.20 692.67   C 520.41 678.35 516.02 660.90 511.91 644.87   C 511.22 642.19 510.69 639.30 509.87 636.45   Q 506.91 626.13 504.92 618.03   Q 501.32 603.34 500.23 599.57   C 497.68 590.74 495.62 581.01 492.83 570.81   Q 488.34 554.40 486.56 546.97   Q 485.13 540.94 480.91 533.63   Q 478.38 529.23 473.41 525.40   A 5.38 5.30 -16.4 0 0 471.82 524.55   Q 463.23 521.65 461.20 521.15   Q 451.71 518.81 446.29 516.21   Q 429.85 508.35 426.66 490.65   Q 424.89 480.89 426.61 472.50   Q 429.02 460.78 429.67 457.22   Q 432.39 442.32 431.05 426.99   Q 429.80 412.68 426.01 401.81   Q 421.73 389.52 412.96 379.98   Q 407.20 373.71 398.88 370.66   Q 394.70 369.13 384.02 368.51   Q 369.69 367.69 363.87 366.87   Q 347.82 364.59 337.38 362.95   C 335.28 362.62 333.15 361.80 331.24 361.54   Q 323.62 360.49 318.00 359.24   Q 308.63 357.16 291.79 352.99   C 280.83 350.28 268.54 346.27 257.95 342.54   Q 243.49 337.44 226.29 328.30   Q 213.95 321.74 201.68 310.23   Q 190.62 299.83 183.02 286.06   Q 174.78 271.15 171.09 254.91   C 170.29 251.39 168.94 247.49 168.54 244.48   Q 165.33 220.33 165.27 210.74   Q 165.23 202.85 165.25 197.92   Q 165.27 193.60 165.78 191.10   C 166.30 188.50 166.03 185.26 166.61 182.01   C 167.57 176.62 168.16 171.09 170.16 165.73   C 171.66 161.69 172.70 158.50 174.41 155.11   C 181.82 140.36 194.22 129.08 208.44 121.18   Q 212.18 119.10 220.33 115.13   Q 225.65 112.54 232.66 110.02   Q 260.52 100.01 279.25 95.79   Q 297.74 91.62 307.57 89.60   Q 317.43 87.56 329.81 85.58   Q 350.47 82.26 354.19 81.70   Q 367.49 79.69 372.52 79.36   Q 377.05 79.07 378.74 78.83   Q 382.44 78.31 384.93 78.11   Q 399.32 76.98 405.75 76.35   Q 416.51 75.30 453.00 74.14   Q 483.24 73.18 530.00 75.87   C 534.90 76.15 540.02 77.08 545.23 77.18   Q 549.09 77.25 551.73 77.62   C 555.11 78.09 557.62 77.84 560.41 78.45   Q 562.43 78.89 569.38 79.41   Q 572.65 79.66 578.33 80.55   C 586.20 81.78 594.93 82.74 602.52 84.20   Q 616.05 86.81 617.39 87.03   Q 624.07 88.10 629.51 89.56   C 634.04 90.78 640.70 91.85 645.65 93.10   Q 680.38 101.81 710.43 114.33   Q 728.46 121.84 745.64 132.13   Q 765.43 143.98 780.59 159.66   Q 784.25 163.46 790.68 172.08   Q 799.26 183.60 803.63 197.15   Q 808.08 210.95 806.77 225.15   Q 805.23 241.90 798.15 254.96   Q 785.05 279.12 761.08 298.35   Q 751.88 305.73 748.81 308.61   Q 743.92 313.20 737.61 320.10   Q 736.69 321.11 731.89 327.64   Q 713.71 352.41 709.59 381.62   Q 708.92 386.40 708.83 388.98   C 708.72 392.46 708.02 395.22 708.17 398.70   Q 708.79 412.28 709.04 414.73   Q 710.72 430.87 714.88 449.63   C 717.50 461.50 720.78 479.18 723.88 494.12   C 725.43 501.61 726.41 507.61 727.46 512.77   Q 730.77 529.10 736.16 561.83   C 737.03 567.10 737.41 572.26 738.42 577.69   C 739.96 585.98 740.60 594.55 742.13 602.49   C 743.07 607.34 743.11 610.91 743.97 616.56   Q 744.81 622.01 744.91 628.36   A 6.99 6.36 -54.4 0 0 745.07 629.73   Q 746.03 634.18 745.95 638.24   Q 745.94 638.62 746.24 639.64   A 4.54 3.98 -59.7 0 1 746.38 640.36   Q 749.34 668.13 750.75 697.35   Q 751.08 704.16 751.05 709.65   C 751.00 719.96 751.26 732.60 750.12 743.00   C 749.83 745.62 750.10 748.53 749.72 751.02   Q 746.46 772.48 743.76 781.34   Q 738.93 797.25 728.49 811.24   A 7.13 7.06 64.8 0 0 727.08 815.21   Q 726.95 818.09 727.36 821.25   C 728.01 826.29 727.84 828.04 728.05 832.76   C 728.23 836.73 727.35 840.40 727.11 844.07   Q 726.96 846.37 726.24 849.90   Q 724.13 860.19 719.94 868.23   Q 717.24 873.42 711.92 880.41   Q 707.15 886.69 702.28 891.37   C 690.97 902.25 677.83 910.94 663.96 918.94   C 662.11 920.00 661.84 921.09 661.88 923.30   Q 662.08 935.05 662.03 946.83   Q 662.00 953.14 660.46 955.90   C 657.95 960.37 653.88 962.77 648.90 963.86   C 639.14 965.98 627.84 965.47 618.77 960.39   A 3.92 3.85 88.0 0 1 617.38 959.07   C 614.55 954.55 613.50 949.79 613.24 944.50   Q 612.92 937.88 611.59 932.70   C 610.88 929.89 609.19 928.45 606.19 927.52   Q 597.58 924.83 590.22 918.38   C 586.62 915.23 584.64 912.26 582.37 908.26   Z   M 340.56 99.38   Q 340.00 99.40 339.68 99.57   Q 339.12 99.87 339.53 100.27   Q 339.81 100.54 340.55 100.69   Q 340.05 100.59 339.79 100.76   A 0.30 0.30 0.0 0 0 339.90 101.30   C 344.66 102.26 349.50 102.36 354.31 103.14   Q 355.30 103.30 366.85 105.02   Q 394.44 109.12 421.08 121.51   Q 443.03 131.72 460.27 148.35   C 480.78 168.13 493.09 195.85 498.73 224.17   Q 499.36 227.34 502.46 227.26   Q 523.45 226.68 542.76 225.51   A 0.31 0.31 0.0 0 0 543.05 225.19   L 543.03 224.92   A 0.09 0.09 0.0 0 0 542.94 224.83   L 538.21 224.63   Q 587.43 222.07 636.48 217.09   Q 645.74 216.15 655.05 215.51   Q 653.28 216.17 651.30 215.98   A 0.28 0.28 0.0 0 0 650.99 216.22   L 650.96 216.39   A 0.34 0.34 0.0 0 0 651.31 216.78   Q 658.29 216.42 664.97 215.65   Q 683.35 213.54 711.79 209.91   Q 725.10 208.21 738.46 205.92   Q 754.14 203.23 761.55 200.54   C 766.75 198.66 770.43 196.74 774.82 193.79   Q 778.53 191.29 775.97 187.08   Q 768.10 174.11 758.99 165.77   Q 746.15 154.03 729.99 144.79   Q 712.51 134.79 695.25 128.01   Q 673.79 119.58 650.25 113.33   Q 628.02 107.43 618.00 105.50   Q 591.92 100.49 564.93 96.85   C 561.22 96.35 558.41 96.46 555.05 95.81   Q 553.77 95.56 547.63 95.08   Q 533.89 94.03 528.93 93.55   Q 526.67 93.34 523.10 93.24   C 518.46 93.12 514.22 92.24 509.77 92.31   Q 506.16 92.36 502.25 92.13   Q 466.76 90.09 427.50 91.59   Q 417.51 91.97 407.49 92.30   C 402.45 92.46 397.56 93.23 393.33 93.14   Q 388.82 93.04 382.72 93.82   Q 378.54 94.35 369.24 94.95   C 360.31 95.52 350.60 97.21 341.32 98.50   Q 339.30 98.78 340.56 99.38   Z   M 195.88 271.70   Q 203.15 287.84 215.98 299.18   C 226.08 308.09 236.08 313.66 248.65 319.31   Q 257.79 323.41 274.77 328.91   Q 293.39 334.93 323.09 340.31   A 5.99 5.89 -28.8 0 1 324.16 340.61   C 328.74 342.32 334.41 342.04 339.27 342.73   C 349.59 344.20 364.75 345.06 370.43 345.43   C 380.53 346.10 389.31 344.45 399.82 342.82   Q 406.72 341.74 413.65 338.39   C 423.12 333.81 431.97 327.46 438.21 319.42   C 448.01 306.80 453.83 291.12 455.99 275.50   Q 460.16 245.24 452.01 215.81   C 450.84 211.61 449.00 207.53 447.77 203.68   Q 446.50 199.68 444.03 194.79   C 439.84 186.48 435.26 179.82 429.58 172.85   Q 426.28 168.80 423.39 166.20   Q 416.16 159.71 410.79 156.02   Q 393.99 144.47 373.34 137.48   Q 358.03 132.30 344.92 129.91   Q 326.38 126.53 303.66 124.74   Q 299.27 124.39 293.34 124.39   Q 283.02 124.38 282.99 124.38   Q 278.79 124.04 267.52 125.03   Q 255.70 126.06 245.17 128.05   Q 236.41 129.70 230.57 131.70   Q 223.47 134.13 216.68 137.43   Q 196.97 147.02 188.95 167.68   C 183.93 180.62 182.93 194.91 183.11 209.06   Q 183.17 213.58 184.00 221.91   Q 184.90 230.89 185.31 234.74   Q 186.40 245.05 188.57 252.43   Q 190.94 260.44 194.11 268.41   Q 194.72 269.93 195.50 271.04   A 4.17 3.90 -76.8 0 1 195.88 271.70   Z   M 456.73 349.29   Q 478.13 350.21 501.50 349.60   Q 526.61 348.94 554.18 346.40   Q 575.49 344.44 595.00 341.25   Q 636.18 334.50 674.95 320.37   C 682.88 317.48 690.22 314.03 697.58 310.77   Q 715.78 302.70 736.73 288.97   C 750.63 279.85 764.84 268.28 774.06 253.86   Q 783.73 238.73 785.03 220.84   A 0.53 0.52 -8.4 0 0 784.32 220.32   C 775.89 223.61 767.55 226.48 758.28 228.52   Q 727.15 235.36 694.85 239.40   Q 678.75 241.41 678.74 241.41   Q 644.84 245.56 640.00 246.04   Q 582.09 251.77 522.14 254.75   C 514.95 255.10 508.40 255.04 501.56 255.03   A 0.77 0.77 0.0 0 0 500.79 255.78   C 500.74 257.56 501.06 259.34 500.89 261.32   Q 499.64 275.30 496.16 290.08   C 491.96 307.97 482.94 325.71 469.94 338.83   C 465.86 342.96 462.11 344.91 456.52 348.54   A 0.41 0.41 0.0 0 0 456.73 349.29   Z   M 702.73 334.93   A 0.40 0.40 0.0 0 0 702.18 334.40   Q 670.75 350.46 636.05 359.79   Q 616.40 365.08 600.98 367.91   Q 565.25 374.46 528.00 375.99   Q 523.22 376.18 518.42 375.94   A 0.43 0.42 -10.4 0 0 518.01 376.53   C 524.87 392.70 528.23 410.18 529.72 428.25   Q 531.34 447.87 527.74 466.47   Q 527.62 467.13 523.94 483.10   Q 521.09 495.44 527.69 505.14   Q 530.50 509.28 535.71 512.96   Q 538.95 515.24 544.73 519.76   C 556.96 529.31 564.97 543.33 569.72 558.02   Q 573.70 570.33 575.24 576.50   Q 588.18 628.22 607.42 703.60   C 611.10 718.01 613.84 731.39 614.73 744.99   Q 616.42 770.66 602.06 793.79   Q 594.40 806.12 584.78 815.80   Q 565.31 835.39 556.88 844.35   Q 550.70 850.92 543.95 863.02   C 541.37 867.64 539.73 873.42 539.23 878.56   A 1.84 1.83 -80.8 0 0 540.64 880.52   C 546.40 881.84 550.72 881.98 557.17 881.35   Q 569.12 880.18 587.80 873.05   Q 599.78 868.47 619.07 858.84   Q 646.60 845.10 664.23 834.71   Q 679.83 825.52 691.36 816.61   C 706.72 804.76 720.07 788.42 725.28 769.35   Q 727.55 761.02 728.33 756.70   Q 729.62 749.64 730.16 738.78   Q 730.96 722.62 729.66 696.25   Q 728.48 672.25 725.19 639.00   Q 723.33 620.16 720.69 603.06   Q 718.79 590.81 716.95 577.04   C 714.34 557.54 711.67 543.92 708.01 522.34   Q 706.08 510.94 702.59 493.72   Q 699.09 476.40 693.82 451.47   C 690.58 436.16 688.15 421.43 687.30 407.75   Q 686.37 392.86 689.46 374.19   Q 692.04 358.66 697.96 345.45   Q 701.08 338.49 702.73 334.93   Z   M 502.54 509.23   Q 497.77 496.75 500.18 482.43   C 501.73 473.25 504.43 462.81 505.13 454.08   C 507.09 429.70 500.77 404.15 490.53 382.02   C 489.44 379.68 489.02 378.09 486.54 378.11   C 471.78 378.23 459.11 376.71 440.98 375.05   Q 439.18 374.88 437.42 374.47   A 0.38 0.37 -7.3 0 0 437.00 375.01   C 448.39 396.43 451.31 421.98 449.85 446.58   C 449.35 454.93 448.17 459.74 446.33 469.79   C 444.06 482.18 443.61 494.10 456.68 499.63   Q 464.25 502.84 472.20 504.33   Q 484.94 506.72 502.04 509.82   A 0.44 0.44 0.0 0 0 502.54 509.23   Z   M 522.00 875.94   C 522.84 861.15 530.07 848.15 539.55 837.05   Q 548.21 826.91 560.20 814.21   Q 572.61 801.07 576.27 796.27   Q 582.05 788.70 583.87 785.61   Q 594.03 768.45 593.04 748.49   Q 592.27 732.97 589.66 722.55   Q 577.54 674.04 573.53 657.31   C 566.58 628.24 559.57 602.00 552.05 570.97   Q 549.78 561.63 546.73 555.19   Q 541.04 543.21 527.98 538.00   Q 517.07 533.65 505.00 531.80   A 0.59 0.59 0.0 0 0 504.34 532.53   Q 505.43 536.70 506.10 539.55   Q 512.75 567.68 517.26 585.30   Q 525.71 618.24 539.37 669.07   Q 544.70 688.91 550.08 710.97   C 552.75 721.95 554.70 734.35 553.95 745.83   Q 553.45 753.62 553.22 754.97   Q 549.77 774.87 536.11 789.88   Q 530.86 795.66 523.28 802.28   Q 504.87 818.36 501.91 821.17   C 491.27 831.28 478.64 845.57 478.25 861.28   A 2.05 2.05 0.0 0 0 479.50 863.21   Q 499.00 871.43 521.49 876.32   A 0.42 0.42 0.0 0 0 522.00 875.94   Z   M 706.01 838.47   A 0.64 0.64 0.0 0 0 704.94 838.01   Q 700.33 842.16 695.49 845.96   Q 689.00 851.06 665.58 866.06   Q 650.38 875.80 613.73 894.21   Q 610.52 895.82 606.34 897.22   A 1.13 1.13 0.0 0 0 605.81 898.99   C 614.40 909.97 629.60 911.94 641.91 906.41   Q 655.24 900.42 675.15 887.91   Q 682.10 883.55 689.27 877.23   Q 706.58 861.96 706.01 838.47   Z" id="path17"></path>
  <path fill="#010101" d="M 655.05 215.51   C 684.97 212.33 715.71 208.94 744.68 203.64   C 755.18 201.72 766.72 198.99 775.16 192.22   A 2.59 2.59 0.0 0 0 775.79 188.92   Q 765.16 170.20 747.59 157.39   C 727.31 142.60 704.26 131.69 680.68 123.58   C 614.32 100.75 544.89 93.42 472.99 92.33   Q 417.85 91.49 363.30 96.82   Q 351.90 97.94 340.56 99.38   Q 339.30 98.78 341.32 98.50   C 350.60 97.21 360.31 95.52 369.24 94.95   Q 378.54 94.35 382.72 93.82   Q 388.82 93.04 393.33 93.14   C 397.56 93.23 402.45 92.46 407.49 92.30   Q 417.51 91.97 427.50 91.59   Q 466.76 90.09 502.25 92.13   Q 506.16 92.36 509.77 92.31   C 514.22 92.24 518.46 93.12 523.10 93.24   Q 526.67 93.34 528.93 93.55   Q 533.89 94.03 547.63 95.08   Q 553.77 95.56 555.05 95.81   C 558.41 96.46 561.22 96.35 564.93 96.85   Q 591.92 100.49 618.00 105.50   Q 628.02 107.43 650.25 113.33   Q 673.79 119.58 695.25 128.01   Q 712.51 134.79 729.99 144.79   Q 746.15 154.03 758.99 165.77   Q 768.10 174.11 775.97 187.08   Q 778.53 191.29 774.82 193.79   C 770.43 196.74 766.75 198.66 761.55 200.54   Q 754.14 203.23 738.46 205.92   Q 725.10 208.21 711.79 209.91   Q 683.35 213.54 664.97 215.65   Q 658.29 216.42 651.31 216.78   A 0.34 0.34 0.0 0 1 650.96 216.39   L 650.99 216.22   A 0.28 0.28 0.0 0 1 651.30 215.98   Q 653.28 216.17 655.05 215.51   Z" id="path18"></path>
  <path fill="#555c61" d="M 655.05 215.51   Q 645.74 216.15 636.48 217.09   Q 587.43 222.07 538.21 224.63   L 501.03 226.13   A 0.96 0.95 -6.5 0 1 500.04 225.35   C 494.97 197.18 481.94 168.10 461.21 148.03   C 428.38 116.27 385.24 104.23 340.55 100.69   Q 339.81 100.54 339.53 100.27   Q 339.12 99.87 339.68 99.57   Q 340.00 99.40 340.56 99.38   Q 351.90 97.94 363.30 96.82   Q 417.85 91.49 472.99 92.33   C 544.89 93.42 614.32 100.75 680.68 123.58   C 704.26 131.69 727.31 142.60 747.59 157.39   Q 765.16 170.20 775.79 188.92   A 2.59 2.59 0.0 0 1 775.16 192.22   C 766.72 198.99 755.18 201.72 744.68 203.64   C 715.71 208.94 684.97 212.33 655.05 215.51   Z" id="path19"></path>
  <path fill="#010101" d="M 340.55 100.69   C 385.24 104.23 428.38 116.27 461.21 148.03   C 481.94 168.10 494.97 197.18 500.04 225.35   A 0.96 0.95 -6.5 0 0 501.03 226.13   L 538.21 224.63   L 542.94 224.83   A 0.09 0.09 0.0 0 1 543.03 224.92   L 543.05 225.19   A 0.31 0.31 0.0 0 1 542.76 225.51   Q 523.45 226.68 502.46 227.26   Q 499.36 227.34 498.73 224.17   C 493.09 195.85 480.78 168.13 460.27 148.35   Q 443.03 131.72 421.08 121.51   Q 394.44 109.12 366.85 105.02   Q 355.30 103.30 354.31 103.14   C 349.50 102.36 344.66 102.26 339.90 101.30   A 0.30 0.30 0.0 0 1 339.79 100.76   Q 340.05 100.59 340.55 100.69   Z" id="path20"></path>
  <path fill="#010101" d="M 195.50 271.04   Q 194.72 269.93 194.11 268.41   Q 190.94 260.44 188.57 252.43   Q 186.40 245.05 185.31 234.74   Q 184.90 230.89 184.00 221.91   Q 183.17 213.58 183.11 209.06   C 182.93 194.91 183.93 180.62 188.95 167.68   Q 196.97 147.02 216.68 137.43   Q 223.47 134.13 230.57 131.70   Q 236.41 129.70 245.17 128.05   Q 255.70 126.06 267.52 125.03   Q 278.79 124.04 282.99 124.38   Q 283.02 124.38 293.34 124.39   Q 299.27 124.39 303.66 124.74   Q 326.38 126.53 344.92 129.91   Q 358.03 132.30 373.34 137.48   Q 393.99 144.47 410.79 156.02   Q 416.16 159.71 423.39 166.20   Q 426.28 168.80 429.58 172.85   C 435.26 179.82 439.84 186.48 444.03 194.79   Q 446.50 199.68 447.77 203.68   C 449.00 207.53 450.84 211.61 452.01 215.81   Q 460.16 245.24 455.99 275.50   C 453.83 291.12 448.01 306.80 438.21 319.42   C 431.97 327.46 423.12 333.81 413.65 338.39   Q 406.72 341.74 399.82 342.82   C 389.31 344.45 380.53 346.10 370.43 345.43   C 364.75 345.06 349.59 344.20 339.27 342.73   C 334.41 342.04 328.74 342.32 324.16 340.61   A 5.99 5.89 -28.8 0 0 323.09 340.31   Q 293.39 334.93 274.77 328.91   Q 257.79 323.41 248.65 319.31   C 236.08 313.66 226.08 308.09 215.98 299.18   Q 203.15 287.84 195.88 271.70   A 4.17 3.90 -76.8 0 0 195.50 271.04   Z   M 444.77 306.56   Q 449.78 296.51 452.00 287.26   Q 456.32 269.30 455.82 252.00   Q 455.44 238.96 452.60 225.15   C 447.56 200.71 435.66 177.38 416.17 161.82   Q 400.94 149.67 381.93 142.34   Q 353.27 131.28 321.74 127.96   Q 306.37 126.34 301.25 126.10   Q 290.27 125.58 273.25 126.18   Q 264.34 126.49 250.57 128.58   Q 231.45 131.49 216.44 139.20   C 199.38 147.96 189.56 163.55 186.68 181.97   C 185.97 186.47 185.16 191.09 185.01 195.96   Q 184.62 208.04 185.10 217.48   Q 185.96 234.71 190.75 253.03   C 197.34 278.23 212.18 298.55 235.59 311.16   Q 243.88 315.62 248.41 317.58   Q 260.21 322.67 274.98 327.25   Q 321.69 341.73 369.66 343.48   C 379.93 343.86 389.27 343.16 398.93 341.39   C 418.72 337.77 435.76 324.61 444.77 306.56   Z" id="path21"></path>
  <path fill="#010101" d="M 236.31 281.67   C 218.70 271.23 211.40 253.71 207.74 234.22   Q 207.05 230.54 206.98 228.75   C 206.88 226.22 206.15 224.09 206.09 221.41   Q 205.73 205.68 206.09 200.27   Q 206.65 191.93 209.13 183.80   C 211.64 175.57 217.78 167.45 225.96 164.22   Q 235.69 160.37 246.62 159.39   Q 251.33 158.96 260.16 158.31   C 264.32 158.00 268.63 158.15 273.52 158.34   Q 283.24 158.70 297.26 160.15   Q 326.86 163.20 354.81 171.49   C 366.30 174.90 378.90 179.63 388.38 185.91   Q 415.22 203.74 420.55 237.49   Q 423.57 256.67 419.38 276.39   Q 416.66 289.17 410.84 298.05   Q 405.83 305.69 396.72 309.78   Q 391.14 312.28 380.06 312.24   Q 369.70 312.21 363.02 311.69   Q 356.34 311.16 339.26 308.90   Q 322.86 306.73 305.28 303.42   Q 276.79 298.06 251.77 289.00   Q 243.82 286.12 236.31 281.67   Z   M 363.15 175.66   C 360.98 175.35 358.98 174.24 356.98 173.66   C 345.30 170.27 333.34 167.04 321.01 165.24   C 319.26 164.98 317.46 164.37 315.83 164.13   Q 305.34 162.56 297.47 161.61   C 290.81 160.80 284.46 160.93 278.53 160.25   C 273.33 159.66 264.70 159.54 258.17 160.06   C 249.31 160.76 244.72 160.92 238.05 162.27   Q 234.68 162.96 231.43 163.80   Q 215.67 167.88 210.51 184.27   Q 208.37 191.09 208.12 194.58   Q 207.03 210.31 208.12 225.03   C 208.57 231.11 210.22 238.95 211.43 243.56   C 214.90 256.83 221.62 270.08 233.14 277.83   C 244.33 285.35 256.73 289.21 269.66 293.22   Q 275.91 295.15 279.05 295.86   Q 287.45 297.74 288.54 298.07   C 293.49 299.53 299.19 300.18 304.28 301.46   Q 310.60 303.06 316.11 303.80   Q 319.58 304.27 333.13 306.36   Q 351.42 309.17 372.54 310.61   C 385.64 311.51 399.83 310.72 408.27 299.05   Q 413.81 291.39 416.11 283.17   Q 420.94 265.88 420.07 248.54   Q 419.50 237.29 416.56 226.92   Q 412.93 214.13 404.65 202.66   Q 403.52 201.10 402.49 200.18   C 400.41 198.32 398.85 195.82 396.86 194.14   Q 389.74 188.15 383.75 184.79   Q 375.81 180.33 363.85 175.84   A 3.20 3.18 59.2 0 0 363.15 175.66   Z" id="path22"></path>
  <path fill="#1c2227" d="M 363.85 175.84   Q 375.81 180.33 383.75 184.79   Q 389.74 188.15 396.86 194.14   C 398.85 195.82 400.41 198.32 402.49 200.18   Q 403.52 201.10 404.65 202.66   Q 412.93 214.13 416.56 226.92   Q 419.50 237.29 420.07 248.54   Q 420.94 265.88 416.11 283.17   Q 413.81 291.39 408.27 299.05   C 399.83 310.72 385.64 311.51 372.54 310.61   Q 351.42 309.17 333.13 306.36   Q 319.58 304.27 316.11 303.80   Q 310.60 303.06 304.28 301.46   C 299.19 300.18 293.49 299.53 288.54 298.07   Q 287.45 297.74 279.05 295.86   Q 275.91 295.15 269.66 293.22   C 256.73 289.21 244.33 285.35 233.14 277.83   C 221.62 270.08 214.90 256.83 211.43 243.56   C 210.22 238.95 208.57 231.11 208.12 225.03   Q 207.03 210.31 208.12 194.58   Q 208.37 191.09 210.51 184.27   Q 215.67 167.88 231.43 163.80   Q 234.68 162.96 238.05 162.27   C 244.72 160.92 249.31 160.76 258.17 160.06   C 264.70 159.54 273.33 159.66 278.53 160.25   C 284.46 160.93 290.81 160.80 297.47 161.61   Q 305.34 162.56 315.83 164.13   C 317.46 164.37 319.26 164.98 321.01 165.24   C 333.34 167.04 345.30 170.27 356.98 173.66   C 358.98 174.24 360.98 175.35 363.15 175.66   A 3.20 3.18 59.2 0 1 363.85 175.84   Z   M 283.37 191.78   A 0.57 0.57 0.0 0 0 282.77 192.36   C 282.95 206.42 282.09 221.17 288.14 234.39   Q 289.88 238.20 292.49 240.28   C 299.81 246.12 309.85 248.40 319.23 250.46   Q 347.70 256.70 378.16 261.06   C 385.39 262.09 392.70 263.24 399.27 263.35   Q 401.12 263.38 402.45 263.13   A 1.09 1.08 -3.8 0 0 403.33 262.13   Q 403.91 252.73 403.32 241.35   Q 403.08 236.75 402.33 233.14   Q 400.89 226.33 400.38 225.07   Q 397.28 217.46 389.66 213.80   C 387.27 212.65 384.31 211.02 381.68 210.10   Q 366.54 204.77 350.18 201.15   Q 328.75 196.40 310.51 194.31   C 296.95 192.75 291.44 192.11 283.37 191.78   Z" id="path23"></path>
  <path fill="#363e44" d="M 283.37 191.78   C 291.44 192.11 296.95 192.75 310.51 194.31   Q 328.75 196.40 350.18 201.15   Q 366.54 204.77 381.68 210.10   C 384.31 211.02 387.27 212.65 389.66 213.80   Q 397.28 217.46 400.38 225.07   Q 400.89 226.33 402.33 233.14   Q 403.08 236.75 403.32 241.35   Q 403.91 252.73 403.33 262.13   A 1.09 1.08 -3.8 0 1 402.45 263.13   Q 401.12 263.38 399.27 263.35   C 392.70 263.24 385.39 262.09 378.16 261.06   Q 347.70 256.70 319.23 250.46   C 309.85 248.40 299.81 246.12 292.49 240.28   Q 289.88 238.20 288.14 234.39   C 282.09 221.17 282.95 206.42 282.77 192.36   A 0.57 0.57 0.0 0 1 283.37 191.78   Z" id="path24"></path>
  <path fill="#363e44" d="M 456.73 349.29   A 0.41 0.41 0.0 0 1 456.52 348.54   C 462.11 344.91 465.86 342.96 469.94 338.83   C 482.94 325.71 491.96 307.97 496.16 290.08   Q 499.64 275.30 500.89 261.32   C 501.06 259.34 500.74 257.56 500.79 255.78   A 0.77 0.77 0.0 0 1 501.56 255.03   C 508.40 255.04 514.95 255.10 522.14 254.75   Q 582.09 251.77 640.00 246.04   Q 644.84 245.56 678.74 241.41   Q 678.75 241.41 694.85 239.40   Q 727.15 235.36 758.28 228.52   C 767.55 226.48 775.89 223.61 784.32 220.32   A 0.53 0.52 -8.4 0 1 785.03 220.84   Q 783.73 238.73 774.06 253.86   C 764.84 268.28 750.63 279.85 736.73 288.97   Q 715.78 302.70 697.58 310.77   C 690.22 314.03 682.88 317.48 674.95 320.37   Q 636.18 334.50 595.00 341.25   Q 575.49 344.44 554.18 346.40   Q 526.61 348.94 501.50 349.60   Q 478.13 350.21 456.73 349.29   Z" id="path25"></path>
  <path fill="#363e44" d="M 702.73 334.93   Q 701.08 338.49 697.96 345.45   Q 692.04 358.66 689.46 374.19   Q 686.37 392.86 687.30 407.75   C 688.15 421.43 690.58 436.16 693.82 451.47   Q 699.09 476.40 702.59 493.72   Q 706.08 510.94 708.01 522.34   C 711.67 543.92 714.34 557.54 716.95 577.04   Q 718.79 590.81 720.69 603.06   Q 723.33 620.16 725.19 639.00   Q 728.48 672.25 729.66 696.25   Q 730.96 722.62 730.16 738.78   Q 729.62 749.64 728.33 756.70   Q 727.55 761.02 725.28 769.35   C 720.07 788.42 706.72 804.76 691.36 816.61   Q 679.83 825.52 664.23 834.71   Q 646.60 845.10 619.07 858.84   Q 599.78 868.47 587.80 873.05   Q 569.12 880.18 557.17 881.35   C 550.72 881.98 546.40 881.84 540.64 880.52   A 1.84 1.83 -80.8 0 1 539.23 878.56   C 539.73 873.42 541.37 867.64 543.95 863.02   Q 550.70 850.92 556.88 844.35   Q 565.31 835.39 584.78 815.80   Q 594.40 806.12 602.06 793.79   Q 616.42 770.66 614.73 744.99   C 613.84 731.39 611.10 718.01 607.42 703.60   Q 588.18 628.22 575.24 576.50   Q 573.70 570.33 569.72 558.02   C 564.97 543.33 556.96 529.31 544.73 519.76   Q 538.95 515.24 535.71 512.96   Q 530.50 509.28 527.69 505.14   Q 521.09 495.44 523.94 483.10   Q 527.62 467.13 527.74 466.47   Q 531.34 447.87 529.72 428.25   C 528.23 410.18 524.87 392.70 518.01 376.53   A 0.43 0.42 -10.4 0 1 518.42 375.94   Q 523.22 376.18 528.00 375.99   Q 565.25 374.46 600.98 367.91   Q 616.40 365.08 636.05 359.79   Q 670.75 350.46 702.18 334.40   A 0.40 0.40 0.0 0 1 702.73 334.93   Z" id="path26"></path>
  <path fill="#f2bb42" d="M 502.04 509.82   Q 484.94 506.72 472.20 504.33   Q 464.25 502.84 456.68 499.63   C 443.61 494.10 444.06 482.18 446.33 469.79   C 448.17 459.74 449.35 454.93 449.85 446.58   C 451.31 421.98 448.39 396.43 437.00 375.01   A 0.38 0.37 -7.3 0 1 437.42 374.47   Q 439.18 374.88 440.98 375.05   C 459.11 376.71 471.78 378.23 486.54 378.11   C 489.02 378.09 489.44 379.68 490.53 382.02   C 500.77 404.15 507.09 429.70 505.13 454.08   C 504.43 462.81 501.73 473.25 500.18 482.43   Q 497.77 496.75 502.54 509.23   A 0.44 0.44 0.0 0 1 502.04 509.82   Z" id="path27"></path>
  <path fill="#363e44" d="M 522.00 875.94   A 0.42 0.42 0.0 0 1 521.49 876.32   Q 499.00 871.43 479.50 863.21   A 2.05 2.05 0.0 0 1 478.25 861.28   C 478.64 845.57 491.27 831.28 501.91 821.17   Q 504.87 818.36 523.28 802.28   Q 530.86 795.66 536.11 789.88   Q 549.77 774.87 553.22 754.97   Q 553.45 753.62 553.95 745.83   C 554.70 734.35 552.75 721.95 550.08 710.97   Q 544.70 688.91 539.37 669.07   Q 525.71 618.24 517.26 585.30   Q 512.75 567.68 506.10 539.55   Q 505.43 536.70 504.34 532.53   A 0.59 0.59 0.0 0 1 505.00 531.80   Q 517.07 533.65 527.98 538.00   Q 541.04 543.21 546.73 555.19   Q 549.78 561.63 552.05 570.97   C 559.57 602.00 566.58 628.24 573.53 657.31   Q 577.54 674.04 589.66 722.55   Q 592.27 732.97 593.04 748.49   Q 594.03 768.45 583.87 785.61   Q 582.05 788.70 576.27 796.27   Q 572.61 801.07 560.20 814.21   Q 548.21 826.91 539.55 837.05   C 530.07 848.15 522.84 861.15 522.00 875.94   Z" id="path28"></path>
  <path fill="#363e44" d="M 706.01 838.47   Q 706.58 861.96 689.27 877.23   Q 682.10 883.55 675.15 887.91   Q 655.24 900.42 641.91 906.41   C 629.60 911.94 614.40 909.97 605.81 898.99   A 1.13 1.13 0.0 0 1 606.34 897.22   Q 610.52 895.82 613.73 894.21   Q 650.38 875.80 665.58 866.06   Q 689.00 851.06 695.49 845.96   Q 700.33 842.16 704.94 838.01   A 0.64 0.64 0.0 0 1 706.01 838.47   Z" id="path29"></path>
</svg>